<?xml version="1.0" encoding="UTF-8"?><svg id="Ebene_1" xmlns="http://www.w3.org/2000/svg" viewBox="0 0 808.83 195.96"><defs><style>.cls-1{fill:#1e1e1e;}.cls-2{fill:#44a4dc;}</style></defs><path class="cls-2" d="M699.19,51.01c-24.47,0-44.32,19.85-44.32,44.32s19.85,44.32,44.32,44.32,44.32-19.85,44.32-44.32-19.85-44.32-44.32-44.32Zm0,78.63c-18.93,0-34.31-15.39-34.31-34.31,0-17.2,12.71-31.48,29.24-33.94v40.36l-13.54-13.43v15.54l18.46,18.46,18.62-18.46v-15.69l-13.77,13.66V61.34c16.71,2.29,29.62,16.65,29.62,33.98,0,18.93-15.39,34.31-34.31,34.31Z"/><g><path class="cls-1" d="M81.55,94.25h14.39v20.7c0,10.46-5.23,16.39-15.31,16.39s-15.31-6-15.31-16.39v-33.93c0-10.46,5.23-16.39,15.31-16.39s15.31,6,15.31,16.39v6.31h-9.69v-7c0-4.69-2.08-6.46-5.31-6.46s-5.31,1.77-5.31,6.46v35.24c0,4.69,2.08,6.31,5.31,6.31s5.31-1.69,5.31-6.31v-12h-4.69v-9.31h0Z"/><path class="cls-1" d="M112.79,92.86h14.08v9.31h-14.08v19.08h17.7v9.31h-27.93V65.32h27.93v9.31h-17.7v18.23Z"/><path class="cls-1" d="M133.87,65.4h31.7v9.31h-10.69v55.93h-10.23v-55.93h-10.69v-9.31h-.08Z"/><path class="cls-1" d="M191.65,111.71h.15l6.92-46.32h14.23v65.24h-9.69v-46.85h-.15l-6.92,46.78h-9.69l-7.46-46.16h-.15v46.16h-8.92V65.32h14.23l7.46,46.39Z"/><path class="cls-1" d="M230.04,109.02l-12.93-43.62h10.69l7.77,29.7h.15l7.77-29.7h9.77l-12.93,43.62v21.62h-10.23v-21.62h-.08Z"/><path class="cls-2" d="M257.35,65.4h10.23v65.24h-10.23V65.4Z"/><path class="cls-2" d="M284.36,83.32h-.15v47.24h-9.23V65.32h12.85l10.31,39.08h.15v-39.08h9.16v65.24h-10.54l-12.54-47.24Z"/><path class="cls-2" d="M330.21,118.56h.15l7.77-53.24h9.39l-10.08,65.24h-15.31l-10.08-65.24h10.46l7.69,53.24Z"/><path class="cls-2" d="M351.37,81.01c0-10.46,5.46-16.39,15.54-16.39s15.54,6,15.54,16.39v33.93c0,10.46-5.46,16.39-15.54,16.39s-15.54-6-15.54-16.39v-33.93Zm10.31,34.62c0,4.69,2.08,6.46,5.31,6.46s5.31-1.77,5.31-6.46v-35.24c0-4.69-2.08-6.46-5.31-6.46s-5.31,1.77-5.31,6.46v35.24Z"/><path class="cls-2" d="M389.14,65.4h10.23v65.24h-10.23V65.4Z"/><path class="cls-2" d="M436.61,106.25v8.69c0,10.46-5.23,16.39-15.31,16.39s-15.31-6-15.31-16.39v-33.93c0-10.46,5.23-16.39,15.31-16.39s15.31,6,15.31,16.39v6.31h-9.69v-7c0-4.69-2.08-6.46-5.31-6.46s-5.31,1.77-5.31,6.46v35.24c0,4.69,2.08,6.31,5.31,6.31s5.31-1.69,5.31-6.31v-9.31h9.69Z"/><path class="cls-2" d="M453.08,92.86h14.08v9.31h-14.08v19.08h17.7v9.31h-27.93V65.32h27.93v9.31h-17.7v18.23Z"/><path class="cls-2" d="M490.93,64.63c10,0,15.08,6,15.08,16.39v2.08h-9.69v-2.69c0-4.69-1.85-6.46-5.15-6.46s-5.15,1.77-5.15,6.46,2.08,8.31,8.77,14.16c8.54,7.54,11.31,12.93,11.31,20.39,0,10.46-5.23,16.39-15.31,16.39s-15.31-6-15.31-16.39v-4h9.69v4.69c0,4.69,2.08,6.31,5.31,6.31s5.31-1.69,5.31-6.31-2.08-8.31-8.77-14.16c-8.54-7.54-11.31-12.93-11.31-20.39,.15-10.54,5.23-16.46,15.23-16.46Z"/><path class="cls-1" d="M521.39,120.71v9.85h-9.85v-9.85h9.85Z"/><path class="cls-1" d="M557.63,106.25v8.69c0,10.46-5.23,16.39-15.31,16.39s-15.31-6-15.31-16.39v-33.93c0-10.46,5.23-16.39,15.31-16.39s15.31,6,15.31,16.39v6.31h-9.69v-7c0-4.69-2.08-6.46-5.31-6.46s-5.31,1.77-5.31,6.46v35.24c0,4.69,2.08,6.31,5.31,6.31s5.31-1.69,5.31-6.31v-9.31h9.69Z"/><path class="cls-1" d="M563.02,81.01c0-10.46,5.46-16.39,15.54-16.39s15.54,6,15.54,16.39v33.93c0,10.46-5.46,16.39-15.54,16.39s-15.54-6-15.54-16.39v-33.93Zm10.31,34.62c0,4.69,2.08,6.46,5.31,6.46s5.31-1.77,5.31-6.46v-35.24c0-4.69-2.08-6.46-5.31-6.46s-5.31,1.77-5.31,6.46v35.24Z"/><path class="cls-1" d="M622.41,111.71h.15l6.92-46.32h14.23v65.24h-9.62v-46.85h-.15l-6.92,46.78h-9.69l-7.46-46.16h-.15v46.16h-8.92V65.32h14.23l7.39,46.39Z"/></g></svg>